<svg xmlns="http://www.w3.org/2000/svg" width="21" height="20" viewBox="0 0 21 20"><g><g opacity=".5"><path fill="#fff" d="M15.628 10.04a5.124 5.124 0 0 1-5.13 5.131 5.124 5.124 0 0 1-5.132-5.131 5.124 5.124 0 0 1 5.131-5.131c2.84 0 5.131 2.292 5.131 5.131zm-1.796 0a3.342 3.342 0 0 0-3.335-3.335 3.342 3.342 0 0 0-3.334 3.335 3.342 3.342 0 0 0 3.334 3.335 3.342 3.342 0 0 0 3.335-3.335zm2.465-6.446a1.197 1.197 0 0 1 .74 1.107c0 .666-.536 1.199-1.199 1.199A1.197 1.197 0 0 1 14.64 4.7a1.197 1.197 0 0 1 1.657-1.107zm4.137 10.574c-.078 1.6-.44 3.02-1.614 4.193-1.17 1.17-2.591 1.536-4.192 1.613-1.379.078-2.747.065-4.128.065-1.379 0-2.747.013-4.128-.065-1.6-.077-3.02-.44-4.193-1.613C1.01 17.19.643 15.769.566 14.168.488 12.789.5 11.418.5 10.04c0-1.378-.013-2.747.065-4.128.077-1.6.44-3.02 1.613-4.193C3.35.55 4.771.183 6.372.106 7.751.028 9.12.04 10.5.04c1.378 0 2.747-.013 4.128.065 1.6.077 3.019.44 4.192 1.613 1.171 1.171 1.536 2.592 1.614 4.193.077 1.379.065 2.747.065 4.128 0 1.38.015 2.75-.065 4.128zm-1.731-4.128c0-1.458.117-4.586-.403-5.901a3.2 3.2 0 0 0-.756-1.146 3.178 3.178 0 0 0-1.145-.756c-1.316-.52-4.443-.403-5.902-.403-1.458 0-4.585-.117-5.901.403a3.234 3.234 0 0 0-1.146.756c-.353.35-.573.69-.755 1.146-.52 1.315-.403 4.443-.403 5.901 0 1.458-.118 4.583.403 5.902.182.455.402.792.755 1.145.35.353.69.573 1.146.756 1.316.52 4.443.403 5.901.403 1.459 0 4.583.117 5.9-.406a3.201 3.201 0 0 0 1.145-.755c.353-.35.573-.69.755-1.146.523-1.316.406-4.44.406-5.899z"/></g></g></svg>