<svg xmlns="http://www.w3.org/2000/svg" width="32" height="32" viewBox="0 0 32 32"><g><g><path fill="#fff" d="M25.698 3.785c0 .955-.37 1.82-.962 2.458H31.6v8.564h-1.853V31.4H2.26V14.8H.4V6.236h6.8a3.604 3.604 0 0 1-.897-2.388C6.303 1.856 7.9.264 9.823.264c1.408 0 4.77 2.126 6.164 4.094C17.337 2.39 20.712.2 22.177.2c1.929 0 3.52 1.592 3.52 3.585zm-1.331.07c0-1.33-.994-2.324-2.19-2.324-1.465 0-5.445 3.183-5.445 4.317 0 .07.109.19.452.293h5.387c1.013-.204 1.796-1.165 1.796-2.286zm-16.727 0c0 1.12.783 2.082 1.795 2.286h5.425c.172-.077.408-.191.408-.293 0-1.134-4.05-4.317-5.444-4.317-1.191 0-2.19 1.057-2.184 2.324zM3.584 30.069h8.43V14.807h-8.43zm8.436-16.523V7.573H1.73v5.973zm1.318 16.523h5.31V7.567h-5.31zM28.41 14.807h-8.43v15.262h8.43zm-8.43-1.261h10.29V7.573H19.98z"/></g></g></svg>